<svg width="1920" height="1080" viewBox="0 0 1920 1080" xmlns="http://www.w3.org/2000/svg">
<defs><style>@import url('https://fonts.googleapis.com/css2?family=Montserrat:ital,wght@0,300;0,400;0,500;0,600;0,700;0,900;1,300;1,400;1,700&amp;display=swap');</style></defs>
<rect width="1920" height="1080" fill="#EFF0F2"/>
<text x="160" y="60" font-family="Montserrat, 'Helvetica Neue', Arial, sans-serif" font-size="13" font-weight="600" fill="#124BCE" text-anchor="start" letter-spacing="3">CONTEXT</text>
<line x1="160" y1="74" x2="1760" y2="74" stroke="#C4C8D2" stroke-width="1"/>
<text x="1760" y="60" font-family="Montserrat, 'Helvetica Neue', Arial, sans-serif" font-size="13" font-weight="400" fill="#6B7280" text-anchor="end">4 / 25</text>
<text x="160" y="172" font-family="Montserrat, 'Helvetica Neue', Arial, sans-serif" font-size="68" font-weight="700" fill="#111827" text-anchor="start">AI Is Entering the Reading Room.</text>
<text x="160" y="232" font-family="Montserrat, 'Helvetica Neue', Arial, sans-serif" font-size="22" font-weight="400" fill="#6B7280" text-anchor="start">The technology is here. The system is not ready.</text>
<text x="160" y="308" font-family="Montserrat, 'Helvetica Neue', Arial, sans-serif" font-size="26" font-weight="700" fill="#124BCE" text-anchor="start">The Promise</text>
<circle cx="166" cy="362" r="4" fill="#124BCE"/>
<text x="180" y="368" font-family="Montserrat, 'Helvetica Neue', Arial, sans-serif" font-size="17" font-weight="400" fill="#111827" text-anchor="start">Detect cancers human readers might miss</text>
<circle cx="166" cy="408" r="4" fill="#124BCE"/>
<text x="180" y="414" font-family="Montserrat, 'Helvetica Neue', Arial, sans-serif" font-size="17" font-weight="400" fill="#111827" text-anchor="start">Reduce double-reading workload by 50%</text>
<circle cx="166" cy="454" r="4" fill="#124BCE"/>
<text x="180" y="460" font-family="Montserrat, 'Helvetica Neue', Arial, sans-serif" font-size="17" font-weight="400" fill="#111827" text-anchor="start">Improve recall accuracy, reduce false positives</text>
<circle cx="166" cy="500" r="4" fill="#124BCE"/>
<text x="180" y="506" font-family="Montserrat, 'Helvetica Neue', Arial, sans-serif" font-size="17" font-weight="400" fill="#111827" text-anchor="start">Support radiologists in high-volume sessions</text>
<circle cx="166" cy="546" r="4" fill="#124BCE"/>
<text x="180" y="552" font-family="Montserrat, 'Helvetica Neue', Arial, sans-serif" font-size="17" font-weight="400" fill="#111827" text-anchor="start">Consistent AI baseline across all cases</text>
<text x="1350" y="308" font-family="Montserrat, 'Helvetica Neue', Arial, sans-serif" font-size="26" font-weight="700" fill="#6B7280" text-anchor="start">The Reality</text>
<circle cx="1356" cy="362" r="4" fill="#C84B00"/>
<text x="1370" y="368" font-family="Montserrat, 'Helvetica Neue', Arial, sans-serif" font-size="17" font-weight="400" fill="#111827" text-anchor="start">AI introduced without an accountability framework</text>
<circle cx="1356" cy="408" r="4" fill="#C84B00"/>
<text x="1370" y="414" font-family="Montserrat, 'Helvetica Neue', Arial, sans-serif" font-size="17" font-weight="400" fill="#111827" text-anchor="start">Clinical governance not updated for co-reading</text>
<circle cx="1356" cy="454" r="4" fill="#C84B00"/>
<text x="1370" y="460" font-family="Montserrat, 'Helvetica Neue', Arial, sans-serif" font-size="17" font-weight="400" fill="#111827" text-anchor="start">No standard protocol for AI-human conflicts</text>
<circle cx="1356" cy="500" r="4" fill="#C84B00"/>
<text x="1370" y="506" font-family="Montserrat, 'Helvetica Neue', Arial, sans-serif" font-size="17" font-weight="400" fill="#111827" text-anchor="start">Responsibility in disagreement remains undefined</text>
<circle cx="1356" cy="546" r="4" fill="#C84B00"/>
<text x="1370" y="552" font-family="Montserrat, 'Helvetica Neue', Arial, sans-serif" font-size="17" font-weight="400" fill="#111827" text-anchor="start">Workflow designed for human-only reading</text>
<line x1="630" y1="860" x2="1290" y2="860" stroke="#C4C8D2" stroke-width="1"/>
<line x1="630" y1="860" x2="630" y2="866" stroke="#C4C8D2" stroke-width="1"/>
<text x="630" y="882" font-family="Montserrat, 'Helvetica Neue', Arial, sans-serif" font-size="12" font-weight="400" fill="#9CA3AF" text-anchor="middle">2019</text>
<line x1="795" y1="860" x2="795" y2="866" stroke="#C4C8D2" stroke-width="1"/>
<text x="795" y="882" font-family="Montserrat, 'Helvetica Neue', Arial, sans-serif" font-size="12" font-weight="400" fill="#9CA3AF" text-anchor="middle">2020</text>
<line x1="960" y1="860" x2="960" y2="866" stroke="#C4C8D2" stroke-width="1"/>
<text x="960" y="882" font-family="Montserrat, 'Helvetica Neue', Arial, sans-serif" font-size="12" font-weight="400" fill="#9CA3AF" text-anchor="middle">2022</text>
<line x1="1125" y1="860" x2="1125" y2="866" stroke="#C4C8D2" stroke-width="1"/>
<text x="1125" y="882" font-family="Montserrat, 'Helvetica Neue', Arial, sans-serif" font-size="12" font-weight="400" fill="#9CA3AF" text-anchor="middle">2023</text>
<line x1="1290" y1="860" x2="1290" y2="866" stroke="#C4C8D2" stroke-width="1"/>
<text x="1290" y="882" font-family="Montserrat, 'Helvetica Neue', Arial, sans-serif" font-size="12" font-weight="400" fill="#9CA3AF" text-anchor="middle">Now →</text>
<path d="M 630,852 C 700,848 750,820 830,765 C 910,710 970,630 1050,550 C 1130,470 1210,400 1290,355 L 1290,832 C 1160,836 1040,840 940,844 C 840,847 730,850 630,852 Z" fill="#E8693C" opacity="0.08" stroke-linecap="round" stroke-linejoin="round"/>
<line x1="630" y1="717" x2="1290" y2="717" stroke="#C4C8D2" stroke-width="0.5"/>
<line x1="630" y1="574" x2="1290" y2="574" stroke="#C4C8D2" stroke-width="0.5"/>
<line x1="630" y1="431" x2="1290" y2="431" stroke="#C4C8D2" stroke-width="0.5"/>
<line x1="630" y1="288" x2="1290" y2="288" stroke="#C4C8D2" stroke-width="0.5"/>
<path d="M 630,852 C 730,850 840,847 940,844 C 1040,840 1160,836 1290,832" fill="none" opacity="1" stroke="#6B7280" stroke-width="2.5" stroke-linecap="round" stroke-linejoin="round"/>
<path d="M 630,852 C 700,848 750,820 830,765 C 910,710 970,630 1050,550 C 1130,470 1210,400 1290,355" fill="none" opacity="1" stroke="#124BCE" stroke-width="3" stroke-linecap="round" stroke-linejoin="round"/>
<circle cx="1290" cy="355" r="5" fill="#124BCE"/>
<circle cx="1290" cy="832" r="5" fill="#6B7280"/>




<line x1="955" y1="565" x2="955" y2="840" stroke="#E8693C" stroke-width="1"/>
<line x1="949" y1="565" x2="961" y2="565" stroke="#E8693C" stroke-width="1"/>
<line x1="949" y1="840" x2="961" y2="840" stroke="#E8693C" stroke-width="1"/>
<rect x="889" y="675" width="132" height="40" fill="#FFFFFF" rx="4" stroke="#E8693C" stroke-width="1.5"/>
<text x="955" y="701" font-family="Montserrat, 'Helvetica Neue', Arial, sans-serif" font-size="14" font-weight="700" fill="#E8693C" text-anchor="middle" letter-spacing="2">THE GAP</text>
<text x="955" y="725" font-family="Montserrat, 'Helvetica Neue', Arial, sans-serif" font-size="11" font-weight="400" fill="#E8693C" text-anchor="middle">Disagreement Zone</text>
<text x="960" y="902" font-family="Montserrat, 'Helvetica Neue', Arial, sans-serif" font-size="11" font-weight="400" fill="#9CA3AF" text-anchor="middle" style="font-style:italic">Conceptual illustration of governance lag · supported by literature below</text>
<text x="160" y="952" font-family="Montserrat, 'Helvetica Neue', Arial, sans-serif" font-size="20" font-weight="400" fill="#6B7280" text-anchor="start">AI can detect. AI can assist. But AI cannot manage trust, accountability, or the human dynamics of disagreement.</text>
<text x="160" y="1004" font-family="Montserrat, 'Helvetica Neue', Arial, sans-serif" font-size="28" font-weight="700" fill="#124BCE" text-anchor="start">Disagreement is a people problem. That is where service design begins.</text>
<text x="1760" y="1055" font-family="Montserrat, 'Helvetica Neue', Arial, sans-serif" font-size="11" font-weight="400" fill="#9CA3AF" text-anchor="end" style="font-style:italic">Topol EJ. Nat Med. 2019;25:44–56  ·  Morley J et al. Soc Sci Med. 2020;260:113172  ·  Nouis SC et al. BMC Med Ethics. 2025;26(1):89</text>
<rect x="635" y="300" width="256" height="64" fill="white" rx="6" stroke="#C4C8D2" stroke-width="1"/>
<line x1="645" y1="322" x2="672" y2="322" stroke="#124BCE" stroke-width="2.5"/>
<circle cx="672" cy="322" r="4" fill="#124BCE"/>
<text x="682" y="327" font-family="Montserrat, 'Helvetica Neue', Arial, sans-serif" font-size="13" font-weight="600" fill="#124BCE" text-anchor="start">AI Technical Capability</text>
<line x1="645" y1="350" x2="672" y2="350" stroke="#6B7280" stroke-width="2.5"/>
<circle cx="672" cy="350" r="4" fill="#6B7280"/>
<text x="682" y="355" font-family="Montserrat, 'Helvetica Neue', Arial, sans-serif" font-size="13" font-weight="400" fill="#6B7280" text-anchor="start">Clinical Governance Readiness</text>
</svg>