<svg width="1920" height="1080" viewBox="0 0 1920 1080" xmlns="http://www.w3.org/2000/svg">
<defs><style>@import url('https://fonts.googleapis.com/css2?family=Montserrat:ital,wght@0,300;0,400;0,500;0,600;0,700;0,900;1,300;1,400;1,700&amp;display=swap');</style></defs>
<rect width="1920" height="1080" fill="#EFF0F2"/>

<!-- HEADER -->
<text x="160" y="60" font-family="Montserrat,'Helvetica Neue',Arial,sans-serif" font-size="13" font-weight="600" fill="#124BCE" letter-spacing="3">CONTEXT</text>
<line x1="160" y1="74" x2="1760" y2="74" stroke="#C4C8D2" stroke-width="1"/>
<text x="1760" y="60" font-family="Montserrat,'Helvetica Neue',Arial,sans-serif" font-size="13" font-weight="400" fill="#6B7280" text-anchor="end">— / —</text>

<!-- TITLE -->
<text x="160" y="140" font-family="Montserrat,'Helvetica Neue',Arial,sans-serif" font-size="60" font-weight="700" fill="#111827">Who is in this system?</text>
<text x="160" y="178" font-family="Montserrat,'Helvetica Neue',Arial,sans-serif" font-size="19" font-weight="400" fill="#6B7280">The NHS breast screening ecosystem — before AI entered the picture.</text>


<!-- ═══════════════════════════════════════════════════════
     BAND 1  External Policy / Regulatory   y=200 h=98
     ═══════════════════════════════════════════════════════ -->
<rect x="160" y="200" width="1600" height="98" rx="8" fill="#EDE8F8"/>

<!-- layer label -->
<text x="184" y="242" font-family="Montserrat,'Helvetica Neue',Arial,sans-serif" font-size="14" font-weight="700" fill="#6D28D9">External Policy /</text>
<text x="184" y="261" font-family="Montserrat,'Helvetica Neue',Arial,sans-serif" font-size="14" font-weight="700" fill="#6D28D9">Regulatory</text>
<line x1="380" y1="212" x2="380" y2="286" stroke="#C4C8D2" stroke-width="1"/>

<!-- ── Pill: Dept. of Health  x=607 w=210 ── -->
<rect x="607" y="226" width="218" height="46" rx="23" fill="#FFFFFF" stroke="#C4C8D2" stroke-width="1.5"/>
<circle cx="630" cy="249" r="15" fill="#7C3AED"/>
<!-- landmark icon (Lucide) -->
<svg x="620" y="239" width="20" height="20" viewBox="0 0 24 24" fill="none" stroke="white" stroke-width="2" stroke-linecap="round" stroke-linejoin="round">
  <line x1="3" y1="22" x2="21" y2="22"/>
  <path d="M6 18V7l6-5 6 5v11"/>
  <path d="M10 22V14h4v8"/>
</svg>
<text x="653" y="255" font-family="Montserrat,'Helvetica Neue',Arial,sans-serif" font-size="15" font-weight="600" fill="#374151">Dept. of Health</text>

<!-- ── Pill: NICE (Clinical Standards)  x=857 w=300 ── -->
<rect x="857" y="226" width="305" height="46" rx="23" fill="#FFFFFF" stroke="#C4C8D2" stroke-width="1.5"/>
<circle cx="880" cy="249" r="15" fill="#7C3AED"/>
<!-- clipboard-list icon (Lucide) -->
<svg x="870" y="239" width="20" height="20" viewBox="0 0 24 24" fill="none" stroke="white" stroke-width="2" stroke-linecap="round" stroke-linejoin="round">
  <rect width="8" height="4" x="8" y="2" rx="1" ry="1"/>
  <path d="M16 4h2a2 2 0 0 1 2 2v14a2 2 0 0 1-2 2H6a2 2 0 0 1-2-2V6a2 2 0 0 1 2-2h2"/>
  <line x1="9" y1="12" x2="15" y2="12"/>
  <line x1="9" y1="16" x2="13" y2="16"/>
</svg>
<text x="903" y="255" font-family="Montserrat,'Helvetica Neue',Arial,sans-serif" font-size="15" font-weight="600" fill="#374151">NICE (Clinical Standards)</text>

<!-- ── Pill: MHRA (Device Regulation)  x=1192 w=290 ── -->
<rect x="1192" y="226" width="292" height="46" rx="23" fill="#FFFFFF" stroke="#C4C8D2" stroke-width="1.5"/>
<circle cx="1215" cy="249" r="15" fill="#7C3AED"/>
<!-- shield icon (Lucide) -->
<svg x="1205" y="239" width="20" height="20" viewBox="0 0 24 24" fill="none" stroke="white" stroke-width="2" stroke-linecap="round" stroke-linejoin="round">
  <path d="M12 22s8-4 8-10V5l-8-3-8 3v7c0 6 8 10 8 10z"/>
</svg>
<text x="1238" y="255" font-family="Montserrat,'Helvetica Neue',Arial,sans-serif" font-size="15" font-weight="600" fill="#374151">MHRA (Device Regulation)</text>


<!-- ═══════════════════════════════════════════════════════
     BAND 2  NHS Organisation / Governance   y=308 h=180
     ═══════════════════════════════════════════════════════ -->
<rect x="160" y="308" width="1600" height="182" rx="8" fill="#E8F0FE"/>

<text x="184" y="382" font-family="Montserrat,'Helvetica Neue',Arial,sans-serif" font-size="14" font-weight="700" fill="#1E40AF">NHS Organisation /</text>
<text x="184" y="401" font-family="Montserrat,'Helvetica Neue',Arial,sans-serif" font-size="14" font-weight="700" fill="#1E40AF">Governance</text>
<line x1="380" y1="320" x2="380" y2="478" stroke="#C4C8D2" stroke-width="1"/>

<!-- Row 1 center_y=367 -->
<!-- ── Pill: Chief Scientist (CSO)  x=440 w=265 ── -->
<rect x="440" y="344" width="265" height="46" rx="23" fill="#FFFFFF" stroke="#C4C8D2" stroke-width="1.5"/>
<circle cx="463" cy="367" r="15" fill="#1D4ED8"/>
<!-- briefcase icon (Lucide) -->
<svg x="453" y="357" width="20" height="20" viewBox="0 0 24 24" fill="none" stroke="white" stroke-width="2" stroke-linecap="round" stroke-linejoin="round">
  <rect width="20" height="14" x="2" y="7" rx="2" ry="2"/>
  <path d="M16 21V5a2 2 0 0 0-2-2h-4a2 2 0 0 0-2 2v16"/>
</svg>
<text x="486" y="373" font-family="Montserrat,'Helvetica Neue',Arial,sans-serif" font-size="15" font-weight="600" fill="#374151">Chief Scientist (CSO)</text>

<!-- connector CSO → NHS Trust -->
<line x1="705" y1="367" x2="873" y2="367" stroke="#93C5FD" stroke-width="1.5" stroke-dasharray="5,4"/>

<!-- ── NHS Trust HUB  center_x=960 x=873 w=174 h=52 ── -->
<rect x="873" y="341" width="174" height="52" rx="26" fill="#DBEAFE" stroke="#1D4ED8" stroke-width="2.5"/>
<circle cx="899" cy="367" r="18" fill="#1D4ED8"/>
<!-- building-2 icon (Lucide) -->
<svg x="888" y="356" width="22" height="22" viewBox="0 0 24 24" fill="none" stroke="white" stroke-width="2" stroke-linecap="round" stroke-linejoin="round">
  <path d="M6 22V4a2 2 0 0 1 2-2h8a2 2 0 0 1 2 2v18Z"/>
  <path d="M6 12H4a2 2 0 0 0-2 2v6a2 2 0 0 0 2 2h2"/>
  <path d="M18 9h2a2 2 0 0 1 2 2v9a2 2 0 0 1-2 2h-2"/>
  <path d="M10 6h4M10 10h4M10 14h4M10 18h4"/>
</svg>
<text x="926" y="374" font-family="Montserrat,'Helvetica Neue',Arial,sans-serif" font-size="16" font-weight="700" fill="#1E40AF">NHS Trust</text>

<!-- connector NHS Trust → Info Governance -->
<line x1="1047" y1="367" x2="1090" y2="367" stroke="#93C5FD" stroke-width="1.5" stroke-dasharray="5,4"/>

<!-- ── Pill: Info Governance  x=1090 w=210 ── -->
<rect x="1090" y="344" width="210" height="46" rx="23" fill="#FFFFFF" stroke="#C4C8D2" stroke-width="1.5"/>
<circle cx="1113" cy="367" r="15" fill="#1D4ED8"/>
<!-- lock icon (Lucide) -->
<svg x="1103" y="357" width="20" height="20" viewBox="0 0 24 24" fill="none" stroke="white" stroke-width="2" stroke-linecap="round" stroke-linejoin="round">
  <rect width="18" height="11" x="3" y="11" rx="2" ry="2"/>
  <path d="M7 11V7a5 5 0 0 1 10 0v4"/>
</svg>
<text x="1136" y="373" font-family="Montserrat,'Helvetica Neue',Arial,sans-serif" font-size="15" font-weight="600" fill="#374151">Info Governance</text>

<!-- Row 2 center_y=450 — connector from NHS Trust down -->
<line x1="960" y1="393" x2="960" y2="427" stroke="#93C5FD" stroke-width="1.5" stroke-dasharray="5,4"/>

<!-- ── Pill: Procurement  center_x=627 x=540 w=175 ── -->
<rect x="540" y="427" width="175" height="46" rx="23" fill="#FFFFFF" stroke="#C4C8D2" stroke-width="1.5"/>
<circle cx="563" cy="450" r="15" fill="#1D4ED8"/>
<!-- shopping-bag icon (Lucide) -->
<svg x="553" y="440" width="20" height="20" viewBox="0 0 24 24" fill="none" stroke="white" stroke-width="2" stroke-linecap="round" stroke-linejoin="round">
  <path d="M6 2L3 6v14a2 2 0 0 0 2 2h14a2 2 0 0 0 2-2V6l-3-4z"/>
  <line x1="3" y1="6" x2="21" y2="6"/>
  <path d="M16 10a4 4 0 0 1-8 0"/>
</svg>
<text x="586" y="456" font-family="Montserrat,'Helvetica Neue',Arial,sans-serif" font-size="15" font-weight="600" fill="#374151">Procurement</text>

<!-- ── Pill: IT Department  center_x=960 x=858 w=204 ── -->
<rect x="858" y="427" width="204" height="46" rx="23" fill="#FFFFFF" stroke="#C4C8D2" stroke-width="1.5"/>
<circle cx="881" cy="450" r="15" fill="#1D4ED8"/>
<!-- monitor icon (Lucide) -->
<svg x="871" y="440" width="20" height="20" viewBox="0 0 24 24" fill="none" stroke="white" stroke-width="2" stroke-linecap="round" stroke-linejoin="round">
  <rect width="20" height="14" x="2" y="3" rx="2" ry="2"/>
  <line x1="8" y1="21" x2="16" y2="21"/>
  <line x1="12" y1="17" x2="12" y2="21"/>
</svg>
<text x="904" y="456" font-family="Montserrat,'Helvetica Neue',Arial,sans-serif" font-size="15" font-weight="600" fill="#374151">IT Department</text>

<!-- ── Pill: Imaging Systems  x=1090 w=215 ── -->
<rect x="1090" y="427" width="215" height="46" rx="23" fill="#FFFFFF" stroke="#C4C8D2" stroke-width="1.5"/>
<circle cx="1113" cy="450" r="15" fill="#1D4ED8"/>
<!-- layers icon (Lucide) -->
<svg x="1103" y="440" width="20" height="20" viewBox="0 0 24 24" fill="none" stroke="white" stroke-width="2" stroke-linecap="round" stroke-linejoin="round">
  <polygon points="12 2 2 7 12 12 22 7 12 2"/>
  <polyline points="2 17 12 22 22 17"/>
  <polyline points="2 12 12 17 22 12"/>
</svg>
<text x="1136" y="456" font-family="Montserrat,'Helvetica Neue',Arial,sans-serif" font-size="15" font-weight="600" fill="#374151">Imaging Systems</text>


<!-- ═══════════════════════════════════════════════════════
     BAND 3  Clinical / Operational   y=500 h=196
     ═══════════════════════════════════════════════════════ -->
<rect x="160" y="500" width="1600" height="198" rx="8" fill="#FFFFFF" stroke="#124BCE" stroke-width="1.5"/>

<text x="184" y="572" font-family="Montserrat,'Helvetica Neue',Arial,sans-serif" font-size="14" font-weight="700" fill="#124BCE">Clinical /</text>
<text x="184" y="591" font-family="Montserrat,'Helvetica Neue',Arial,sans-serif" font-size="14" font-weight="700" fill="#124BCE">Operational</text>
<line x1="380" y1="514" x2="380" y2="686" stroke="#124BCE" stroke-width="1" opacity="0.3"/>

<!-- Row 1 center_y=555 -->

<!-- ── Pill: Adv. Practitioners  x=575 w=240 ── -->
<rect x="575" y="532" width="240" height="46" rx="23" fill="#F9FAFB" stroke="#C4C8D2" stroke-width="1.5"/>
<circle cx="598" cy="555" r="15" fill="#374151"/>
<!-- user icon (Lucide) -->
<svg x="588" y="545" width="20" height="20" viewBox="0 0 24 24" fill="none" stroke="white" stroke-width="2" stroke-linecap="round" stroke-linejoin="round">
  <path d="M20 21v-2a4 4 0 0 0-4-4H8a4 4 0 0 0-4 4v2"/>
  <circle cx="12" cy="7" r="4"/>
</svg>
<text x="621" y="561" font-family="Montserrat,'Helvetica Neue',Arial,sans-serif" font-size="15" font-weight="600" fill="#374151">Adv. Practitioners</text>

<!-- connector Adv.Pract. → Radiologist -->
<line x1="815" y1="555" x2="855" y2="555" stroke="#C4C8D2" stroke-width="1.5" stroke-dasharray="5,4"/>

<!-- ── Radiologist HUB  center_x=960 x=726 w=468... wait that's too wide.
     Let me use center_x=960, w=210, x=855 ── -->
<rect x="855" y="529" width="210" height="52" rx="26" fill="#124BCE"/>
<circle cx="881" cy="555" r="18" fill="rgba(255,255,255,0.2)"/>
<!-- activity icon (Lucide) — used for clinical/medical -->
<svg x="870" y="544" width="22" height="22" viewBox="0 0 24 24" fill="none" stroke="white" stroke-width="2" stroke-linecap="round" stroke-linejoin="round">
  <polyline points="22 12 18 12 15 21 9 3 6 12 2 12"/>
</svg>
<text x="908" y="562" font-family="Montserrat,'Helvetica Neue',Arial,sans-serif" font-size="16" font-weight="700" fill="#FFFFFF">★ Radiologist</text>

<!-- connector Radiologist → Radiographer -->
<line x1="1065" y1="555" x2="1080" y2="555" stroke="#C4C8D2" stroke-width="1.5" stroke-dasharray="5,4"/>

<!-- ── Pill: Radiographer  x=1080 w=195 ── -->
<rect x="1080" y="532" width="195" height="46" rx="23" fill="#F9FAFB" stroke="#C4C8D2" stroke-width="1.5"/>
<circle cx="1103" cy="555" r="15" fill="#374151"/>
<!-- camera icon (Lucide) -->
<svg x="1093" y="545" width="20" height="20" viewBox="0 0 24 24" fill="none" stroke="white" stroke-width="2" stroke-linecap="round" stroke-linejoin="round">
  <path d="M23 19a2 2 0 0 1-2 2H3a2 2 0 0 1-2-2V8a2 2 0 0 1 2-2h4l2-3h6l2 3h4a2 2 0 0 1 2 2z"/>
  <circle cx="12" cy="13" r="4"/>
</svg>
<text x="1126" y="561" font-family="Montserrat,'Helvetica Neue',Arial,sans-serif" font-size="15" font-weight="600" fill="#374151">Radiographer</text>

<!-- Row 2 center_y=651  connector from Radiologist down -->
<line x1="960" y1="581" x2="960" y2="628" stroke="#C4C8D2" stroke-width="1.5" stroke-dasharray="5,4"/>

<!-- ── Pill: Surgeon  x=453 w=145 ── -->
<rect x="453" y="628" width="145" height="46" rx="23" fill="#F9FAFB" stroke="#C4C8D2" stroke-width="1.5"/>
<circle cx="476" cy="651" r="15" fill="#374151"/>
<svg x="466" y="641" width="20" height="20" viewBox="0 0 24 24" fill="none" stroke="white" stroke-width="2" stroke-linecap="round" stroke-linejoin="round">
  <path d="M20 21v-2a4 4 0 0 0-4-4H8a4 4 0 0 0-4 4v2"/>
  <circle cx="12" cy="7" r="4"/>
</svg>
<text x="499" y="657" font-family="Montserrat,'Helvetica Neue',Arial,sans-serif" font-size="15" font-weight="600" fill="#374151">Surgeon</text>

<!-- ── Pill: Oncologist  x=618 w=175 ── -->
<rect x="618" y="628" width="175" height="46" rx="23" fill="#F9FAFB" stroke="#C4C8D2" stroke-width="1.5"/>
<circle cx="641" cy="651" r="15" fill="#374151"/>
<svg x="631" y="641" width="20" height="20" viewBox="0 0 24 24" fill="none" stroke="white" stroke-width="2" stroke-linecap="round" stroke-linejoin="round">
  <path d="M20 21v-2a4 4 0 0 0-4-4H8a4 4 0 0 0-4 4v2"/>
  <circle cx="12" cy="7" r="4"/>
</svg>
<text x="664" y="657" font-family="Montserrat,'Helvetica Neue',Arial,sans-serif" font-size="15" font-weight="600" fill="#374151">Oncologist</text>

<!-- ── MDT  center_x=960 x=813 w=294 ── -->
<rect x="813" y="628" width="294" height="46" rx="23" fill="#F9FAFB" stroke="#C4C8D2" stroke-width="1.5"/>
<circle cx="836" cy="651" r="15" fill="#374151"/>
<!-- users icon (Lucide) -->
<svg x="826" y="641" width="20" height="20" viewBox="0 0 24 24" fill="none" stroke="white" stroke-width="2" stroke-linecap="round" stroke-linejoin="round">
  <path d="M17 21v-2a4 4 0 0 0-4-4H5a4 4 0 0 0-4 4v2"/>
  <circle cx="9" cy="7" r="4"/>
  <path d="M23 21v-2a4 4 0 0 0-3-3.87"/>
  <path d="M16 3.13a4 4 0 0 1 0 7.75"/>
</svg>
<text x="859" y="657" font-family="Montserrat,'Helvetica Neue',Arial,sans-serif" font-size="15" font-weight="600" fill="#374151">MDT (Multi-Disciplinary)</text>

<!-- ── Pill: Pathologist  x=1127 w=165 ── -->
<rect x="1127" y="628" width="165" height="46" rx="23" fill="#F9FAFB" stroke="#C4C8D2" stroke-width="1.5"/>
<circle cx="1150" cy="651" r="15" fill="#374151"/>
<svg x="1140" y="641" width="20" height="20" viewBox="0 0 24 24" fill="none" stroke="white" stroke-width="2" stroke-linecap="round" stroke-linejoin="round">
  <path d="M20 21v-2a4 4 0 0 0-4-4H8a4 4 0 0 0-4 4v2"/>
  <circle cx="12" cy="7" r="4"/>
</svg>
<text x="1173" y="657" font-family="Montserrat,'Helvetica Neue',Arial,sans-serif" font-size="15" font-weight="600" fill="#374151">Pathologist</text>

<!-- ── Pill: GP  x=1312 w=95 ── -->
<rect x="1312" y="628" width="95" height="46" rx="23" fill="#F9FAFB" stroke="#C4C8D2" stroke-width="1.5"/>
<circle cx="1335" cy="651" r="15" fill="#374151"/>
<!-- home icon (Lucide) — GP = community/home care -->
<svg x="1325" y="641" width="20" height="20" viewBox="0 0 24 24" fill="none" stroke="white" stroke-width="2" stroke-linecap="round" stroke-linejoin="round">
  <path d="m3 9 9-7 9 7v11a2 2 0 0 1-2 2H5a2 2 0 0 1-2-2z"/>
  <polyline points="9 22 9 12 15 12 15 22"/>
</svg>
<text x="1358" y="657" font-family="Montserrat,'Helvetica Neue',Arial,sans-serif" font-size="15" font-weight="600" fill="#374151">GP</text>


<!-- ═══════════════════════════════════════════════════════
     BAND 4  Public / Affected   y=708 h=80
     ═══════════════════════════════════════════════════════ -->
<rect x="160" y="708" width="1600" height="82" rx="8" fill="#FEF3EE"/>

<text x="184" y="745" font-family="Montserrat,'Helvetica Neue',Arial,sans-serif" font-size="14" font-weight="700" fill="#C05621">Public /</text>
<text x="184" y="764" font-family="Montserrat,'Helvetica Neue',Arial,sans-serif" font-size="14" font-weight="700" fill="#C05621">Affected</text>
<line x1="380" y1="720" x2="380" y2="778" stroke="#C4C8D2" stroke-width="1"/>

<!-- ── Patient pill  center_x=960 x=905 w=110 ── -->
<rect x="905" y="725" width="110" height="46" rx="23" fill="#E8693C"/>
<circle cx="928" cy="748" r="15" fill="rgba(255,255,255,0.25)"/>
<!-- heart icon (Lucide) -->
<svg x="918" y="738" width="20" height="20" viewBox="0 0 24 24" fill="none" stroke="white" stroke-width="2" stroke-linecap="round" stroke-linejoin="round">
  <path d="M20.84 4.61a5.5 5.5 0 0 0-7.78 0L12 5.67l-1.06-1.06a5.5 5.5 0 0 0-7.78 7.78l1.06 1.06L12 21.23l7.78-7.78 1.06-1.06a5.5 5.5 0 0 0 0-7.78z"/>
</svg>
<text x="951" y="754" font-family="Montserrat,'Helvetica Neue',Arial,sans-serif" font-size="15" font-weight="700" fill="#FFFFFF">Patient</text>


<!-- TAKEAWAY -->
<text x="160" y="828" font-family="Montserrat,'Helvetica Neue',Arial,sans-serif" font-size="26" font-weight="700" fill="#124BCE">Every mammogram decision flows through the radiologist — the clinical layer has no protocol for what happens when AI enters.</text>

</svg>
