<svg xmlns="http://www.w3.org/2000/svg" width="1920" height="1080" viewBox="0 0 1920 1080">
<defs>
<marker id="arrow" markerWidth="10" markerHeight="10" refX="8" refY="5" orient="auto">
<path d="M0,0 L10,5 L0,10 z" fill="#D9E2EC"/>
</marker>
<style>
.small { font-family: IBM Plex Sans, Arial, sans-serif; }
</style>
</defs>
<rect width="1920" height="1080" fill="#F7F9FB"/>
<rect x="0" y="0" width="1920" height="1080" fill="url(#none)" opacity="0"/>
<text x="96" y="122" font-family="Newsreader, Arial, sans-serif" font-size="56" font-weight="700" fill="#111827" text-anchor="start">Our primary user carries the decision, not just the interface</text>
<rect x="160" y="290" width="520" height="520" rx="18" fill="#FFFFFF" stroke="#D9E2EC" stroke-width="2"/>
<rect x="230" y="350" width="180" height="180" rx="90" fill="#EEF2F6" stroke="#D9E2EC" stroke-width="2"/>
<text x="420" y="405" font-family="IBM Plex Sans, Arial, sans-serif" font-size="20" font-weight="700" fill="#5E6B7A" text-anchor="start">[PLACEHOLDER: portrait]</text>
<text x="230" y="595" font-family="IBM Plex Sans, Arial, sans-serif" font-size="22" font-weight="700" fill="#2368A2" text-anchor="start">Primary user</text>
<text x="230" y="640" font-family="IBM Plex Sans, Arial, sans-serif" font-size="31" font-weight="700" fill="#111827" text-anchor="start">Radiologist / Breast advanced practitioner / Senior reader</text>
<text x="230" y="710" font-family="Newsreader, Arial, sans-serif" font-size="24" font-weight="400" fill="#5E6B7A" text-anchor="start">"[PLACEHOLDER: quote]"</text>
<rect x="780" y="320" width="395" height="92" rx="18" fill="#FFFFFF" stroke="#D9E2EC" stroke-width="2"/>
<line x1="804" y1="342" x2="1151" y2="342" stroke="#2368A2" stroke-width="6" stroke-linecap="round"/>
<text x="808" y="392" font-family="IBM Plex Sans, Arial, sans-serif" font-size="28" font-weight="700" fill="#111827" text-anchor="start">Every extra step matters</text>
<rect x="1230" y="320" width="395" height="92" rx="18" fill="#FFFFFF" stroke="#D9E2EC" stroke-width="2"/>
<line x1="1254" y1="342" x2="1601" y2="342" stroke="#D99A22" stroke-width="6" stroke-linecap="round"/>
<text x="1258" y="392" font-family="IBM Plex Sans, Arial, sans-serif" font-size="28" font-weight="700" fill="#111827" text-anchor="start">AI needs clinical context</text>
<rect x="780" y="448" width="395" height="92" rx="18" fill="#FFFFFF" stroke="#D9E2EC" stroke-width="2"/>
<line x1="804" y1="470" x2="1151" y2="470" stroke="#2368A2" stroke-width="6" stroke-linecap="round"/>
<text x="808" y="520" font-family="IBM Plex Sans, Arial, sans-serif" font-size="28" font-weight="700" fill="#111827" text-anchor="start">Human-led accountability</text>
<rect x="1230" y="448" width="395" height="92" rx="18" fill="#FFFFFF" stroke="#D9E2EC" stroke-width="2"/>
<line x1="1254" y1="470" x2="1601" y2="470" stroke="#D99A22" stroke-width="6" stroke-linecap="round"/>
<text x="1258" y="520" font-family="IBM Plex Sans, Arial, sans-serif" font-size="28" font-weight="700" fill="#111827" text-anchor="start">Shared arbitration context</text>
<rect x="780" y="576" width="395" height="92" rx="18" fill="#FFFFFF" stroke="#D9E2EC" stroke-width="2"/>
<line x1="804" y1="598" x2="1151" y2="598" stroke="#2368A2" stroke-width="6" stroke-linecap="round"/>
<text x="808" y="648" font-family="IBM Plex Sans, Arial, sans-serif" font-size="28" font-weight="700" fill="#111827" text-anchor="start">Learning across cases</text>
<rect x="795" y="740" width="165" height="44" rx="22" fill="#EAF3FA" stroke="none" stroke-width="0"/><text x="877.5" y="769" font-family="IBM Plex Sans, Arial, sans-serif" font-size="18" font-weight="700" fill="#2368A2" text-anchor="middle">screening</text>
<rect x="985" y="740" width="165" height="44" rx="22" fill="#EAF3FA" stroke="none" stroke-width="0"/><text x="1067.5" y="769" font-family="IBM Plex Sans, Arial, sans-serif" font-size="18" font-weight="700" fill="#2368A2" text-anchor="middle">prior image</text>
<rect x="1175" y="740" width="165" height="44" rx="22" fill="#EAF3FA" stroke="none" stroke-width="0"/><text x="1257.5" y="769" font-family="IBM Plex Sans, Arial, sans-serif" font-size="18" font-weight="700" fill="#2368A2" text-anchor="middle">arbitration</text>
<rect x="1365" y="740" width="165" height="44" rx="22" fill="#EAF3FA" stroke="none" stroke-width="0"/><text x="1447.5" y="769" font-family="IBM Plex Sans, Arial, sans-serif" font-size="18" font-weight="700" fill="#2368A2" text-anchor="middle">record</text>
<rect x="1555" y="740" width="165" height="44" rx="22" fill="#EAF3FA" stroke="none" stroke-width="0"/><text x="1637.5" y="769" font-family="IBM Plex Sans, Arial, sans-serif" font-size="18" font-weight="700" fill="#2368A2" text-anchor="middle">learning</text>
<text x="96" y="1012" font-family="IBM Plex Sans, Arial, sans-serif" font-size="18" font-weight="400" fill="#8A97A6" text-anchor="start">Readyology | RCA Service Design IRP</text>
</svg>
