<svg width="320" height="620" viewBox="0 0 320 620" fill="none" xmlns="http://www.w3.org/2000/svg">
<g clip-path="url(#clip0_1266_5113)">
<rect x="0.00390625" width="381.84" height="633.977" fill="#124BCE"/>
<g opacity="0.7">
<ellipse opacity="0.03" cx="131.478" cy="135.157" rx="131.478" ry="135.157" transform="matrix(0.397028 -0.917807 0.985589 0.169157 -119.91 140.758)" fill="white"/>
<ellipse opacity="0.02" cx="88.5821" cy="117.977" rx="88.5821" ry="117.977" transform="matrix(0.397028 -0.917807 0.985589 0.169157 -119.461 122.297)" fill="white"/>
</g>
<path opacity="0.02" d="M20.3011 440.726C17.4055 500.448 -18.1027 538.926 -35.4948 550.7L-35.4927 648.626L370.32 648.625L380.94 120.708C349.088 109.183 273.904 148.276 246.207 193.801C218.51 239.325 143.593 229.017 96.4059 246.999C49.2182 264.98 23.9206 366.074 20.3011 440.726Z" fill="white"/>
<path opacity="0.03" d="M15.099 460.335C5.82936 517.309 -29.2682 546.425 -45.6583 553.862L-39.6834 652.8L362.419 654.74L363.552 232.923C337.282 214.614 267.767 235.37 238.633 273.048C209.5 310.726 145.81 283.873 102.922 290.575C60.0346 297.278 26.686 389.118 15.099 460.335Z" fill="white"/>
<path opacity="0.03" d="M14.7253 476.652C4.0253 526.029 -31.7998 549.658 -48.3748 555.3L-44.8863 642.212L357.122 665.158L368.852 296.022C343.045 278.609 273.016 293.102 242.94 324.54C212.863 355.978 149.855 329.11 106.804 332.71C63.7524 336.31 28.1002 414.931 14.7253 476.652Z" fill="white"/>
</g>
<defs>
<clipPath id="clip0_1266_5113">
<rect width="320" height="620" fill="white"/>
</clipPath>
</defs>
</svg>
