<svg width="320" height="620" viewBox="0 0 320 620" fill="none" xmlns="http://www.w3.org/2000/svg">
<g clip-path="url(#clip0_1138_3201)">
<rect width="381.84" height="633.977" fill="#124BCE"/>
<g opacity="0.7">
<ellipse opacity="0.05" cx="135.907" cy="138.868" rx="135.907" ry="138.868" transform="matrix(0.586321 -0.810079 0.921777 0.387719 -127.047 124.254)" fill="white"/>
<ellipse opacity="0.04" cx="91.5655" cy="121.217" rx="91.5655" ry="121.217" transform="matrix(0.586321 -0.810079 0.921777 0.387719 -122.398 105.68)" fill="white"/>
</g>
<path opacity="0.04" d="M20.2972 440.726C17.4016 500.448 -18.1066 538.926 -35.4987 550.7L-35.4966 648.626L370.316 648.625L380.936 120.708C349.084 109.183 273.9 148.276 246.203 193.801C218.506 239.325 143.59 229.017 96.4019 246.999C49.2143 264.98 23.9166 366.074 20.2972 440.726Z" fill="white"/>
<path opacity="0.05" d="M15.099 460.339C5.82936 517.313 -29.2682 546.429 -45.6583 553.865L-39.6834 652.804L362.419 654.744L363.552 232.927C337.282 214.618 267.767 235.374 238.633 273.052C209.5 310.73 145.81 283.877 102.922 290.579C60.0346 297.282 26.686 389.122 15.099 460.339Z" fill="white"/>
<path opacity="0.07" d="M14.7253 476.656C4.0253 526.033 -31.7998 549.662 -48.3748 555.304L-44.8863 642.216L357.122 665.162L368.852 296.026C343.045 278.613 273.016 293.106 242.94 324.544C212.863 355.982 149.855 329.114 106.804 332.714C63.7524 336.313 28.1002 414.935 14.7253 476.656Z" fill="white"/>
</g>
<defs>
<clipPath id="clip0_1138_3201">
<rect width="320" height="620" fill="white"/>
</clipPath>
</defs>
</svg>
